
<svg xmlns="http://www.w3.org/2000/svg" version="1.1" xmlns:xlink="http://www.w3.org/1999/xlink" preserveAspectRatio="none" x="0px" y="0px" width="64px" height="64px" viewBox="0 0 64 64">
<defs>
<g id="iconCube_0_Layer0_0_FILL">
<path fill="#FFFFFF" stroke="none" d="
M 32.1 46.75
Q 31.85 46.8 31.65 46.75
L 20.2 43.25 20.2 52.25 31.85 56.05 31.95 56.05 43.6 52.3 43.6 43.25 32.1 46.75
M 9.2 29.85
L 9.2 38.35 18.7 41.25 18.7 32.65 9.2 29.85
M 0 46.05
L 7.7 48.45 7.7 39.45 0 37.1 0 46.05
M 9.2 39.9
L 9.2 48.9 18.7 51.8 18.7 42.8 9.2 39.9
M 7.7 29.45
L 0 27.2 0 35.55 7.7 37.9 7.7 29.45
M 18.7 22.65
L 9.2 19.85 9.2 28.3 18.7 31.05 18.7 22.65
M 7.7 19.4
L 0 17.2 0 25.6 7.7 27.85 7.7 19.4
M 7.7 8.4
Q 7.7 8.15 7.9 7.95 8.05 7.7 8.3 7.7
L 17.05 5.85 10 4.25 0 6.1 0 15.65 7.7 17.85 7.7 8.4
M 20.5 5.15
L 27.95 3.6 20.45 2.05 13.45 3.55 20.5 5.15
M 28.45 8.45
L 20.55 6.65 9.2 9 9.2 18.3 18.7 21.05 18.7 11.25
Q 18.7 11 18.9 10.8 19.05 10.6 19.3 10.55
L 28.45 8.45
M 39.25 6
L 31.55 4.35 24.05 5.95 31.8 7.7 39.25 6
M 31.6 2.85
L 39.25 1.25 31.9 0 24.35 1.3 31.6 2.85
M 43.55 31.55
L 43.55 23.1 32.05 26.4
Q 31.85 26.45 31.65 26.4
L 20.2 23.05 20.2 31.5 31.85 34.95 43.55 31.55
M 56.05 19.5
L 56.05 27.95 63.85 25.7 63.85 17.3 56.05 19.5
M 56.05 29.5
L 56.05 37.95 63.8 35.65 63.85 27.25 56.05 29.5
M 54.55 29.9
L 45.05 32.7 45.1 41.25 54.55 38.4 54.55 29.9
M 43.6 41.7
L 43.55 33.1 31.9 36.6 20.2 33.05 20.2 41.7 31.85 45.2 43.6 41.7
M 54.55 48.95
L 54.55 39.95 45.1 42.8 45.1 51.85 54.55 48.95
M 56.05 39.5
L 56.05 48.5 63.85 46.1 63.8 37.2 56.05 39.5
M 43.55 21.55
L 43.5 11.85 31.9 9.2 31.85 9.2 20.2 11.85 20.2 21.5 31.85 24.9 43.55 21.55
M 54.55 19.95
L 45.05 22.65 45.05 31.1 54.55 28.35 54.55 19.95
M 54.55 9.15
L 42.75 6.75 35.2 8.45 45 10.65 45.05 21.1 54.55 18.4 54.55 9.15
M 50.2 3.55
L 42.85 2 35.25 3.6 42.85 5.2 50.2 3.55
M 63.85 15.75
L 63.85 6.1 53.8 4.25 46.35 5.9 56.05 7.95 56.05 17.95 63.85 15.75 Z"/>
</g>
</defs>

<g transform="matrix( 1, 0, 0, 1, 0,1.75) ">
<g transform="matrix( 1, 0, 0, 1, 0,0) ">
<use xlink:href="#iconCube_0_Layer0_0_FILL"/>
</g>
</g>
</svg>
