
<svg xmlns="http://www.w3.org/2000/svg" version="1.1" xmlns:xlink="http://www.w3.org/1999/xlink" preserveAspectRatio="none" x="0px" y="0px" width="64px" height="64px" viewBox="0 0 64 64">
<defs>
<g id="iconModal_0_Layer2_0_FILL">
<path fill="#FFFFFF" stroke="none" d="
M 52.5 20.1
Q 52.5046875 10.5 42.85 10.5
L 20.1 10.5
Q 10.5 10.5 10.5 20.1
L 10.5 45.95
Q 10.4953125 55.5 20.1 55.5
L 42.85 55.5
Q 52.5091796875 55.5 52.5 45.95
L 52.5 20.1
M 49.5 20.1
L 49.5 22 13.5 22 13.5 20.1
Q 13.5 13.5 20.1 13.5
L 42.85 13.5
Q 49.4953125 13.5 49.5 20.1
M 49.5 24
L 49.5 45.95
Q 49.4908203125 52.5 42.85 52.5
L 20.1 52.5
Q 13.5044921875 52.5 13.5 45.95
L 13.5 24 49.5 24 Z"/>
</g>

<g id="iconModal_0_Layer1_0_FILL">
<path fill="#FFFFFF" stroke="none" d="
M 45.4 19.4
Q 46 18.85 46 18 46 17.15 45.4 16.55 44.85 16 44 16 43.15 16 42.55 16.55 42 17.15 42 18 42 18.85 42.55 19.4 43.15 20 44 20 44.85 20 45.4 19.4 Z"/>
</g>
</defs>

<g transform="matrix( 1, 0, 0, 1, 0,0) ">
<g transform="matrix( 1, 0, 0, 1, 0,0) ">
<use xlink:href="#iconModal_0_Layer2_0_FILL"/>
</g>

<g transform="matrix( 1, 0, 0, 1, 0,0) ">
<use xlink:href="#iconModal_0_Layer1_0_FILL"/>
</g>
</g>
</svg>
