
<svg xmlns="http://www.w3.org/2000/svg" version="1.1" xmlns:xlink="http://www.w3.org/1999/xlink" preserveAspectRatio="none" x="0px" y="0px" width="64px" height="64px" viewBox="0 0 64 64">
<defs>
<g id="iconEnvelope_0_Layer0_0_FILL">
<path fill="#FFFFFF" stroke="none" d="
M 64 36.35
L 64 4.7
Q 63.85 0.15 59.35 0
L 4.7 0
Q 0.15 0.15 0 4.7
L 0 36.35
Q 0.15 40.85 4.7 41
L 59.35 41
Q 63.85 40.85 64 36.35
M 24.85 20.2
L 24.8 20.15 3.7 3 60.3 3 39.2 20.15 39.15 20.2 32 26 24.85 20.2
M 61 37.5
L 41.05 20.7 61 4.45 61 37.5
M 32 28.1
Q 32.0423828125 28.1263671875 32.05 28.1
L 39.9 21.75 59.1 37.85 4.95 37.85 24.1 21.75 31.9 28.1
Q 31.957421875 28.1263671875 32 28.1
M 3.1 37.2
L 3.1 4.7 22.8 20.7 3.1 37.2
M 39.9 21.7
Q 39.8408203125 21.717578125 39.8 21.65
L 39.9 21.6 40 21.65 39.95 21.7
Q 39.9431640625 21.7314453125 39.9 21.7 Z"/>
</g>
</defs>

<g transform="matrix( 1, 0, 0, 1, 0,9) ">
<g transform="matrix( 1, 0, 0, 1, 0,0) ">
<use xlink:href="#iconEnvelope_0_Layer0_0_FILL"/>
</g>
</g>
</svg>
