
<svg xmlns="http://www.w3.org/2000/svg" version="1.1" xmlns:xlink="http://www.w3.org/1999/xlink" preserveAspectRatio="none" x="0px" y="0px" width="64px" height="64px" viewBox="0 0 64 64">
<defs>
<g id="iconUser_0_Layer0_0_FILL">
<path fill="#FFFFFF" stroke="none" d="
M 64 32
Q 64 18.75 54.6 9.35 45.25 0 32 0 18.75 0 9.35 9.35 0 18.75 0 32 0 45.25 9.35 54.6 18.75 64 32 64 45.25 64 54.6 54.6 64 45.25 64 32
M 40.8 36.8
Q 44.4994140625 33.162890625 44.5 28 44.496875 22.8361328125 40.8 19.15 37.1669921875 15.50625 32 15.5 26.837109375 15.4962890625 23.15 19.1
L 23.1 19.15
Q 19.4962890625 22.837109375 19.5 28 19.50625 33.1669921875 23.15 36.8 24.4369140625 38.090625 25.9 38.9 22.430078125 40.0525390625 19.55 42.5
L 19.55 42.5
Q 14.3353515625 47.18828125 14.35 53.8 14.349609375 54.34296875 14.3 55 12.8708984375 53.8708984375 11.5 52.5 3 44 3 32 3 20 11.5 11.5 20 3 32 3 44 3 52.5 11.5 61 20 61 32 61 44 52.5 52.5 51.1515625 53.8484375 49.7 54.95 49.700390625 54.31015625 49.7 53.8 49.7189453125 47.1875 44.45 42.5 41.6505859375 40.0173828125 38.15 38.9 39.5626953125 38.075 40.8 36.8
L 40.8 36.8
M 25.25 21.25
L 25.25 21.25
Q 28.0802734375 18.503515625 32 18.5 35.9326171875 18.493359375 38.7 21.25 41.5029296875 24.063671875 41.5 28 41.5005859375 31.9193359375 38.7 34.65
L 38.65 34.7
Q 35.9193359375 37.5005859375 32 37.5 28.063671875 37.5029296875 25.25 34.7 22.493359375 31.9326171875 22.5 28 22.503515625 24.0802734375 25.25 21.25
M 21.55 44.75
L 21.5 44.75
Q 25.9169921875 40.9853515625 32.05 41 38.2046875 41.0029296875 42.45 44.75 46.680859375 48.5123046875 46.7 53.8 46.69921875 54.719140625 46.75 56.15 46.749609375 56.5482421875 46.75 57 46.6140625 57.128515625 46.45 57.2 39.998046875 61 32 61 24.0138671875 61 17.55 57.2 17.4234375 57.13671875 17.25 57.05 17.300390625 56.583984375 17.3 56.15
L 17.3 56.1
Q 17.3505859375 54.7525390625 17.35 53.8 17.364453125 48.5115234375 21.55 44.75 Z"/>
</g>
</defs>

<g transform="matrix( 1, 0, 0, 1, 0,0) ">
<g transform="matrix( 1, 0, 0, 1, 0,0) ">
<use xlink:href="#iconUser_0_Layer0_0_FILL"/>
</g>
</g>
</svg>
