
<svg xmlns="http://www.w3.org/2000/svg" version="1.1" xmlns:xlink="http://www.w3.org/1999/xlink" preserveAspectRatio="none" x="0px" y="0px" width="64px" height="64px" viewBox="0 0 64 64">
<defs>
<g id="iconPoster_0_Layer0_0_FILL">
<path fill-opacity="0" stroke="none" d="
M 21.15 9.75
Q 22.15 9.25 23 8.4 23.45 7.95 23.8 7.5
L 21.15 9.75 Z"/>
</g>

<path id="iconPoster_0_Layer0_0_1_STROKES" stroke="#FFFFFF" stroke-width="2" stroke-linejoin="bevel" stroke-linecap="round" fill="none" d="
M 23.8 7.5
L 32.45 0
Q 41.15 1.25 40.25 8.7 40.05 12.4 42.45 15.2
L 49.95 8.7
Q 51.9 6.75 54.65 6.75 57.5 6.75 59.45 8.7 61.4 10.7 61.4 13.5 61.4 16.25 59.45 18.25 59.05 18.6 58.6 19
L 26.05 46.85 25.25 47.65 24.8 48
Q 23.15 49.05 21.05 49.05 18.95 49.05 17.35 48.05 7.15 44.1 7.55 36.55 8.45 29.15 0 28
L 21.15 9.75 23.8 7.5 Z
M 17.35 48.05
Q 16.75 47.6 16.25 47.1 15.8 46.65 15.45 46.1 14.5 44.85 14.35 43.3
L 14.35 42.95
Q 14.3 42.65 14.3 42.3 14.3 39.55 16.25 37.6 16.7 37.1 17.35 36.75
L 42.45 15.2
M 17.35 36.75
Q 18.9 35.6 21.05 35.6 23.8 35.6 25.75 37.6 27.8 39.55 27.8 42.3 27.8 45 26.05 46.85 25.85 47 25.75 47.1 25.5 47.35 25.25 47.65"/>
</defs>

<g transform="matrix( 1, 0, 0, 1, 1.45,14.05) ">
<g transform="matrix( 1, 0, 0, 1, 0,0) ">
<use xlink:href="#iconPoster_0_Layer0_0_FILL"/>

<use xlink:href="#iconPoster_0_Layer0_0_1_STROKES"/>
</g>
</g>
</svg>
