
<svg xmlns="http://www.w3.org/2000/svg" version="1.1" xmlns:xlink="http://www.w3.org/1999/xlink" preserveAspectRatio="none" x="0px" y="0px" width="64px" height="64px" viewBox="0 0 64 64">
<defs>
<g id="iconWorld_0_Layer0_0_FILL">
<path fill="#FFFFFF" fill-opacity="0.9686274509803922" stroke="none" d="
M 64 32
Q 64 18.75 54.6 9.35 45.25 0 32 0 18.75 0 9.35 9.35 0 18.75 0 32 0 45.25 9.35 54.6 18.75 64 32 64 45.25 64 54.6 54.6 64 45.25 64 32
M 52.5 11.5
Q 61 20 61 32 61 44 52.5 52.5 50.4724609375 54.5275390625 48.25 56.05 47.365625 56.68671875 46.45 57.2 43.0501953125 59.2142578125 39.2 60.15 38.3833984375 60.7546875 37.55 61.35 36.95 61.8 36.3 62.3 33.05 64.7 30.55 62.8 28.95 61.6 26.85 61.15 24.9716796875 60.723828125 23.75 59.85 20.50546875 58.9431640625 17.55 57.2 16.6716796875 56.6990234375 15.8 56.1 13.5486328125 54.5486328125 11.5 52.5 3 44 3 32 3 20 11.5 11.5 20 3 32 3 44 3 52.5 11.5 Z"/>

<path fill="#FFFFFF" stroke="none" d="
M 45.9 16.15
Q 45.3 16.5 44.7 16.6 42.25 17 39.3 17 38.2 17 37.1 17.45 33.25 18.95 29.35 17.8 29.2 17.2 28.7 17 26 16.15 23.8 18.55 23.15 16.95 21.75 15.95 21.5 15.75 21.4 15.55 20.75 13.5 18.6 13.1 15.8 14.1 13.5 15.85 9 14.2 7.35 17.95 6.6 19.8 5.3 21.35 4.6 22.15 5.1 23.15 6.8 26.45 10.9 25.85 10.9 25.95 10.95 26 11.5 27.4 13.1 27.65 12.75 29.8 12.9 32 13 34.15 13.7 36.2 15.6 41.5 17.25 47.1 17.5 47.95 18.25 48.15 21.15 49.05 20.15 46.05 20.5 46.5 20.95 46.75 23.15 47.95 23.95 50.05 23.65 50.2 23.5 50.5 22.75 51.55 22.1 52.65 21.7 53.4 21.6 54.25 21.1208984375 58.048046875 23.75 59.85 24.9716796875 60.723828125 26.85 61.15 28.95 61.6 30.55 62.8 33.05 64.7 36.3 62.3 36.95 61.8 37.55 61.35 38.3833984375 60.7546875 39.2 60.15 41.1982421875 58.73984375 43.2 57.3 44.35 56.5 43.95 55.15 43.55 53.9 43.55 52.7 43.6 48.9 39.95 48.45 34.35 47.75 29.25 49.8 29 48.8 29 47.75 29 46.05 29 44.35 32.9 42.5 36.15 39.95 37.7 38.7 39.4 39.8 42.05 41.55 45.05 42.2 46.8 42.55 46.75 40.9 46.6 37.4 44.5 34.5 43.5 33.1 43.85 31.65 44.7 28.05 46.25 24.7 47.9 21.15 48.15 17.35 48.35 14.7 45.9 16.15
M 41.55 28.75
Q 39.65 33.8 43.35 38.15 37.25 34.15 31.7 39.15 31.15 39.6 30.6 39.8 25.1 41.45 26 46.9 25.70234375 46.5494140625 24.45 46 23.19296875 45.5017578125 21.25 42.9 19.309375 40.34765625 18.2 40.35 16.45 36.2 15.9 31.85 15.8 30.9 16.1 29.95 17.55 25.9 13.85 24.65 13.65 23.9 13 23.45 10.9 21.95 7.95 22.45 8.45 21.9 8.85 21.25 9.55 20 10.15 18.65 11.45 18.45 12.55 18.95 13.1 19.25 13.6 19.05 15.85 18.25 18.05 16.65 19 17.9 20.2 19.05 21 19.85 21.9 20.6 24.45 22.75 27.05 20.05 31.1 22.5 35.95 20.9 40.25 19.5 44.45 20.35 42.9 23.7 42 27.3 41.8 28.05 41.55 28.75
M 35.5 51.05
Q 37.45 51.05 39.45 51 40.05 51 40.05 51.5 40 53.5 40.85 55.25 39.6 55.75 38.65 56.6 36.1 59 32.75 60.4 29.2 58.65 25.4 57.2 24.85 57 24.8 56.55 24.471875 53.8779296875 27.55 52.2
L 35.5 51.05 Z"/>
</g>
</defs>

<g transform="matrix( 1, 0, 0, 1, 0,0) ">
<g transform="matrix( 1, 0, 0, 1, 0,0) ">
<use xlink:href="#iconWorld_0_Layer0_0_FILL"/>
</g>
</g>
</svg>
