<svg xmlns="http://www.w3.org/2000/svg">


<style type="text/css">
    .box path:not(.svg-nocolor){fill:currentColor}
    .box use:not(.svg-nocolor):visited{color:currentColor}
    .box use:not(.svg-nocolor):hover{color:currentColor}
    .box use:not(.svg-nocolor):active{color:currentColor}
</style>


<defs>
<g id="iconCheck_Fill">
<path stroke="none" d="
M 64 6
L 54 0 26 46 8 28 0 36 28 64 64 6 Z"/>
</g>

<g id="icon_0_Layer1_0_FILL">
<path fill-opacity="0.9882352941176471" stroke="none" d="
M 32 4.2
L 27.65 0 15.85 11.8 4.2 0.15 0 4.35 11.65 16 0 27.65 4.2 31.85 15.85 20.2 27.65 32 31.85 27.8 20.2 16.15 32 4.2 Z"/>
</g>

<g id="icon_0_Layer0_0_FILL">
<path fill-opacity="0" stroke="none" d="
M 32 0
L 0 0 0 32 32 32 32 0 Z"/>
</g>

<g id="iconEdit_0_Layer1_0_FILL">
<path stroke="none" d="
M 2.05 61.95
L 16.9 58.4 5.55 47.05 2.05 61.95
M 62.85 12.45
L 51.5 1.1 44.45 8.15 55.8 19.5 62.85 12.45
M 53.65 21.65
L 42.3 10.3 7.65 44.95 19 56.3 53.65 21.65 Z"/>
</g>

<g id="iconEdit_0_Layer0_0_FILL">
<path fill-opacity="0" stroke="none" d="
M 64 0
L 0 0 0 64 64 64 64 0 Z"/>
</g>

<g id="iconEnvelope_0_Layer0_0_FILL">
<path stroke="none" d="
M 64 36.35
L 64 4.7
Q 63.85 0.15 59.35 0
L 4.7 0
Q 0.15 0.15 0 4.7
L 0 36.35
Q 0.15 40.85 4.7 41
L 59.35 41
Q 63.85 40.85 64 36.35
M 24.85 20.2
L 24.8 20.15 3.7 3 60.3 3 39.2 20.15 39.15 20.2 32 26 24.85 20.2
M 61 37.5
L 41.05 20.7 61 4.45 61 37.5
M 32 28.1
Q 32.0423828125 28.1263671875 32.05 28.1
L 39.9 21.75 59.1 37.85 4.95 37.85 24.1 21.75 31.9 28.1
Q 31.957421875 28.1263671875 32 28.1
M 3.1 37.2
L 3.1 4.7 22.8 20.7 3.1 37.2
M 39.9 21.7
Q 39.8408203125 21.717578125 39.8 21.65
L 39.9 21.6 40 21.65 39.95 21.7
Q 39.9431640625 21.7314453125 39.9 21.7 Z"/>
</g>

<g id="iconHide_0_Layer1_0_FILL">
<path stroke="none" d="
M 54.4 53.4
Q 55.016015625 53.3947265625 55.45 52.95 55.8947265625 52.516015625 55.9 51.9 55.8947265625 51.283984375 55.45 50.85 55.016015625 50.4052734375 54.4 50.4
L 48.4 50.4
Q 47.783984375 50.4052734375 47.35 50.85 46.9052734375 51.283984375 46.9 51.9 46.9052734375 52.516015625 47.35 52.95 47.783984375 53.3947265625 48.4 53.4
L 54.4 53.4
M 18.4 53.4
Q 19.016015625 53.3947265625 19.45 52.95 19.8947265625 52.516015625 19.9 51.9 19.8947265625 51.283984375 19.45 50.85 19.016015625 50.4052734375 18.4 50.4
L 12.4 50.4
Q 11.783984375 50.4052734375 11.35 50.85 10.9052734375 51.283984375 10.9 51.9 10.9052734375 52.516015625 11.35 52.95 11.783984375 53.3947265625 12.4 53.4
L 18.4 53.4
M 36.4 50.4
L 30.4 50.4
Q 29.783984375 50.4052734375 29.35 50.85 28.9052734375 51.283984375 28.9 51.9 28.9052734375 52.516015625 29.35 52.95 29.783984375 53.3947265625 30.4 53.4
L 36.4 53.4
Q 37.016015625 53.3947265625 37.45 52.95 37.8947265625 52.516015625 37.9 51.9 37.8947265625 51.283984375 37.45 50.85 37.016015625 50.4052734375 36.4 50.4
M 3.3 44.5
Q 3.2947265625 43.883984375 2.85 43.45 2.416015625 43.0052734375 1.8 43 1.183984375 43.0052734375 0.75 43.45 0.3052734375 43.883984375 0.3 44.5
L 0.3 50.5
Q 0.3052734375 51.116015625 0.75 51.55 1.183984375 51.9947265625 1.8 52 2.416015625 51.9947265625 2.85 51.55 3.2947265625 51.116015625 3.3 50.5
L 3.3 44.5
M 3.3 26.5
Q 3.2947265625 25.883984375 2.85 25.45 2.416015625 25.0052734375 1.8 25 1.183984375 25.0052734375 0.75 25.45 0.3052734375 25.883984375 0.3 26.5
L 0.3 32.5
Q 0.3052734375 33.116015625 0.75 33.55 1.183984375 33.9947265625 1.8 34 2.416015625 33.9947265625 2.85 33.55 3.2947265625 33.116015625 3.3 32.5
L 3.3 26.5
M 8.85 11.15
Q 8.416015625 10.7052734375 7.8 10.7
L 1.8 10.7
Q 1.183984375 10.7052734375 0.75 11.15 0.3052734375 11.583984375 0.3 12.2
L 0.3 14.5
Q 0.3052734375 15.116015625 0.75 15.55 1.183984375 15.9947265625 1.8 16 2.416015625 15.9947265625 2.85 15.55 3.2947265625 15.116015625 3.3 14.5
L 3.3 13.7 7.8 13.7
Q 8.416015625 13.6947265625 8.85 13.25 9.2947265625 12.816015625 9.3 12.2 9.2947265625 11.583984375 8.85 11.15
M 26.85 11.15
Q 26.416015625 10.7052734375 25.8 10.7
L 19.8 10.7
Q 19.183984375 10.7052734375 18.75 11.15 18.3052734375 11.583984375 18.3 12.2 18.3052734375 12.816015625 18.75 13.25 19.183984375 13.6947265625 19.8 13.7
L 25.8 13.7
Q 26.416015625 13.6947265625 26.85 13.25 27.2947265625 12.816015625 27.3 12.2 27.2947265625 11.583984375 26.85 11.15
M 63.75 41.8
Q 63.7447265625 41.183984375 63.3 40.75 62.866015625 40.3052734375 62.25 40.3 61.633984375 40.3052734375 61.2 40.75 60.7552734375 41.183984375 60.75 41.8
L 60.75 47.8
Q 60.7552734375 48.416015625 61.2 48.85 61.633984375 49.2947265625 62.25 49.3 62.866015625 49.2947265625 63.3 48.85 63.7447265625 48.416015625 63.75 47.8
L 63.75 41.8
M 43.8 13.7
Q 44.416015625 13.6947265625 44.85 13.25 45.2947265625 12.816015625 45.3 12.2 45.2947265625 11.583984375 44.85 11.15 44.416015625 10.7052734375 43.8 10.7
L 37.8 10.7
Q 37.183984375 10.7052734375 36.75 11.15 36.3052734375 11.583984375 36.3 12.2 36.3052734375 12.816015625 36.75 13.25 37.183984375 13.6947265625 37.8 13.7
L 43.8 13.7
M 63.75 23.8
Q 63.7447265625 23.183984375 63.3 22.75 62.866015625 22.3052734375 62.25 22.3 61.633984375 22.3052734375 61.2 22.75 60.7552734375 23.183984375 60.75 23.8
L 60.75 29.8
Q 60.7552734375 30.416015625 61.2 30.85 61.633984375 31.2947265625 62.25 31.3 62.866015625 31.2947265625 63.3 30.85 63.7447265625 30.416015625 63.75 29.8
L 63.75 23.8
M 62.85 11.15
Q 62.416015625 10.7052734375 61.8 10.7
L 55.8 10.7
Q 55.183984375 10.7052734375 54.75 11.15 54.3052734375 11.583984375 54.3 12.2 54.3052734375 12.816015625 54.75 13.25 55.183984375 13.6947265625 55.8 13.7
L 61.8 13.7
Q 62.416015625 13.6947265625 62.85 13.25 63.2947265625 12.816015625 63.3 12.2 63.2947265625 11.583984375 62.85 11.15 Z"/>
</g>

<g id="iconHide_0_Layer0_0_FILL">
<path fill-opacity="0" stroke="none" d="
M 64 0
L 0 0 0 64 64 64 64 0 Z"/>
</g>

<g id="menu_0_Layer1_0_FILL">
<path stroke="none" d="
M 62.8 48.15
Q 61.65 47 60 47
L 4 47
Q 2.35 47 1.15 48.15 0 49.35 0 51
L 0 53
Q 0 54.65 1.15 55.8 2.35 57 4 57
L 60 57
Q 61.65 57 62.8 55.8 64 54.65 64 53
L 64 51
Q 64 49.35 62.8 48.15
M 64 31
Q 64 29.35 62.8 28.15 61.65 27 60 27
L 4 27
Q 2.35 27 1.15 28.15 0 29.35 0 31
L 0 33
Q 0 34.65 1.15 35.8 2.35 37 4 37
L 60 37
Q 61.65 37 62.8 35.8 64 34.65 64 33
L 64 31
M 64 11
Q 64 9.35 62.8 8.15 61.65 7 60 7
L 4 7
Q 2.35 7 1.15 8.15 0 9.35 0 11
L 0 13
Q 0 14.65 1.15 15.8 2.35 17 4 17
L 60 17
Q 61.65 17 62.8 15.8 64 14.65 64 13
L 64 11 Z"/>
</g>

<g id="menu_0_Layer0_0_FILL">
<path fill-opacity="0" stroke="none" d="
M 64 64
L 64 0 0 0 0 64 64 64 Z"/>
</g>

<g id="iconPoster_0_Layer0_0_FILL">
<path fill-opacity="0" stroke="none" d="
M 21.15 9.75
Q 22.15 9.25 23 8.4 23.45 7.95 23.8 7.5
L 21.15 9.75 Z"/>
</g>

<path id="iconPoster_0_Layer0_0_1_STROKES" stroke="#FFFFFF" stroke-width="2" stroke-linejoin="bevel" stroke-linecap="round" d="
M 23.8 7.5
L 32.45 0
Q 41.15 1.25 40.25 8.7 40.05 12.4 42.45 15.2
L 49.95 8.7
Q 51.9 6.75 54.65 6.75 57.5 6.75 59.45 8.7 61.4 10.7 61.4 13.5 61.4 16.25 59.45 18.25 59.05 18.6 58.6 19
L 26.05 46.85 25.25 47.65 24.8 48
Q 23.15 49.05 21.05 49.05 18.95 49.05 17.35 48.05 7.15 44.1 7.55 36.55 8.45 29.15 0 28
L 21.15 9.75 23.8 7.5 Z
M 17.35 48.05
Q 16.75 47.6 16.25 47.1 15.8 46.65 15.45 46.1 14.5 44.85 14.35 43.3
L 14.35 42.95
Q 14.3 42.65 14.3 42.3 14.3 39.55 16.25 37.6 16.7 37.1 17.35 36.75
L 42.45 15.2
M 17.35 36.75
Q 18.9 35.6 21.05 35.6 23.8 35.6 25.75 37.6 27.8 39.55 27.8 42.3 27.8 45 26.05 46.85 25.85 47 25.75 47.1 25.5 47.35 25.25 47.65"/>

<g id="icon_search_0_Layer1_0_FILL">
<path fill-opacity="0" stroke="none" d="
M 25 0
L 0 0 0 25 25 25 25 0 Z"/>
</g>

<g id="icon_search_0_Layer0_0_FILL">
<path stroke="none" d="
M 25 9.5
Q 25 5.6 22.2 2.8 19.4 0 15.5 0 11.6 0 8.8 2.8 6 5.6 6 9.5 6 12.3 7.45 14.55
L 0 22 2.8 24.85 10.25 17.4
Q 12.55 19 15.5 19 19.4 19 22.2 16.25
L 22.25 16.2
Q 25 13.4 25 9.5
M 23.05 9.5
Q 23.05 12.65 20.8 14.8 18.65 17.05 15.5 17.05 12.4 17.05 10.15 14.8 8 12.65 8 9.5 8 6.45 10.15 4.2
L 10.2 4.15
Q 12.45 2 15.5 2 18.65 2 20.8 4.15 23.05 6.4 23.05 9.5 Z"/>
</g>

<g id="icon_settings_0_Layer1_0_FILL">
<path fill-opacity="0" stroke="none" d="
M 0 0
L 0 36 36 36 36 0 0 0 Z"/>
</g>

<g id="icon_settings_0_Layer0_0_FILL">
<path stroke="none" d="
M 33.4 11.85
Q 34.5 11.45 34.05 10.25
L 33.5 8.85
Q 33.05 7.4 31.85 7.8
L 28.6 9.3
Q 28.05 8.6 27.4 7.95 25.7 6.25 23.7 5.3
L 24.8 2.5
Q 25.2 1.4 24.05 0.85
L 22.65 0.25
Q 21.3 -0.45 20.8 0.65
L 19.45 4.1
Q 18.6 4 17.75 4 15.3 4 13.15 4.75
L 11.95 2
Q 11.55 0.9 10.35 1.35
L 8.95 1.9
Q 7.5 2.35 7.9 3.55
L 9.4 6.85
Q 8.7 7.35 8.1 7.95 6.35 9.75 5.35 11.85
L 2.5 10.65
Q 1.4 10.25 0.85 11.4
L 0.25 12.8
Q -0.45 14.15 0.65 14.65
L 4.2 16.05
Q 4.1 16.8 4.1 17.65 4.1 20.1 4.85 22.2
L 2 23.45
Q 0.9 23.85 1.35 25.05
L 1.9 26.45
Q 2.35 27.9 3.55 27.5
L 7 26
Q 7.5 26.6 8.1 27.2 9.85 29 11.95 30
L 10.75 32.9
Q 10.35 34 11.5 34.55
L 12.9 35.15
Q 14.25 35.85 14.75 34.75
L 16.15 31.2
Q 16.95 31.3 17.75 31.3 20.2 31.3 22.4 30.55
L 23.6 33.4
Q 24 34.5 25.2 34.05
L 26.6 33.5
Q 28.05 33.05 27.65 31.85
L 26.15 28.45
Q 26.8 27.9 27.4 27.3
L 27.45 27.2
Q 29.1 25.55 30.1 23.6
L 32.9 24.75
Q 34 25.15 34.55 24
L 35.15 22.6
Q 35.85 21.25 34.75 20.75
L 31.3 19.4
Q 31.4 18.55 31.4 17.65 31.4 15.2 30.65 13.05
L 33.4 11.85
M 25.35 9.95
Q 28.6 13.15 28.6 17.65 28.6 22.1 25.35 25.2 22.3 28.45 17.75 28.45 13.3 28.45 10.15 25.2 6.95 22.1 6.95 17.65 6.95 13.2 10.15 10.05
L 10.2 9.95
Q 13.35 6.8 17.75 6.8 22.3 6.8 25.35 9.95
M 24.45 10.85
L 24.45 10.8
Q 21.765234375 8.051953125 17.75 8.05 13.8408203125 8.0521484375 11.05 10.85 8.2013671875 13.6916015625 8.2 17.65 8.1947265625 21.5587890625 11 24.3
L 11.05 24.3
Q 13.7892578125 27.1529296875 17.75 27.15 21.7845703125 27.140234375 24.45 24.25
L 24.45 24.3
Q 27.305078125 21.5763671875 27.3 17.65 27.298828125 13.64140625 24.45 10.85
M 23 12.25
L 23.05 12.25
Q 25.3013671875 14.4767578125 25.3 17.65 25.2947265625 20.7236328125 23.05 22.85 23.0373046875 22.9013671875 23 22.9 20.9154296875 25.159375 17.75 25.15 14.628515625 25.146875 12.45 22.9
L 12.45 22.85
Q 10.205078125 20.7236328125 10.2 17.65 10.1986328125 14.5083984375 12.45 12.25 14.6591796875 10.0478515625 17.75 10.05 20.9162109375 10.0478515625 23 12.25 Z"/>

<path fill-opacity="0" stroke="none" d="
M 28.6 17.65
Q 28.6 13.15 25.35 9.95 22.3 6.8 17.75 6.8 13.35 6.8 10.2 9.95
L 10.15 10.05
Q 6.95 13.2 6.95 17.65 6.95 22.1 10.15 25.2 13.3 28.45 17.75 28.45 22.3 28.45 25.35 25.2 28.6 22.1 28.6 17.65
M 24.45 10.8
L 24.45 10.85
Q 27.298828125 13.64140625 27.3 17.65 27.305078125 21.5763671875 24.45 24.3
L 24.45 24.25
Q 21.7845703125 27.140234375 17.75 27.15 13.7892578125 27.1529296875 11.05 24.3
L 11 24.3
Q 8.1947265625 21.5587890625 8.2 17.65 8.2013671875 13.6916015625 11.05 10.85 13.8408203125 8.0521484375 17.75 8.05 21.765234375 8.051953125 24.45 10.8
M 23.05 12.25
L 23 12.25
Q 20.9162109375 10.0478515625 17.75 10.05 14.6591796875 10.0478515625 12.45 12.25 10.1986328125 14.5083984375 10.2 17.65 10.205078125 20.7236328125 12.45 22.85
L 12.45 22.9
Q 14.628515625 25.146875 17.75 25.15 20.9154296875 25.159375 23 22.9 23.0373046875 22.9013671875 23.05 22.85 25.2947265625 20.7236328125 25.3 17.65 25.3013671875 14.4767578125 23.05 12.25 Z"/>
</g>

<g id="icon_sourcecode_0_Layer1_0_FILL">
<path stroke="none" d="
M 9.95 5.1
Q 9.85 4.9 9.7 5.1
L 2.25 11.25
Q 2.2 11.25 2.15 11.4 2.1 11.45 2.1 11.6 2.05 11.75 2.05 11.9 2 12.15 2 12.4 2 12.95 2.1 13.25 2.15 13.6 2.25 13.7
L 9.7 19.85
Q 9.8 19.9 9.85 20 9.9 20 9.95 19.9 10 19.75 10 19.5 10 19.25 10 18.9 10 18.5 10 18.15 10 17.9 9.95 17.75 9.9 17.6 9.85 17.5 9.8 17.4 9.7 17.3
L 3.65 12.5 9.75 7.55
Q 9.85 7.45 9.85 7.35 9.95 7.3 9.95 7.1 10 6.95 10 6.7 10 6.45 10 5.95 10 5.25 9.95 5.1
M 23 12.5
Q 23 11.9 23 11.65 22.9 11.4 22.8 11.3
L 15.4 5.1
Q 15.25 5 15.2 5 15.1 5 15.05 5.1 15.05 5.15 15 5.4 15 5.6 15 6 15 6.5 15 6.75 15 6.95 15.05 7.1 15.1 7.35 15.15 7.45 15.25 7.55 15.35 7.6
L 21.4 12.4 15.3 17.4
Q 15.2 17.4 15.15 17.5 15.05 17.65 15.05 17.8 15 18 15 18.25 15 18.5 15 18.95 15 19.25 15 19.5 15.05 19.75 15.05 19.85 15.1 20 15.2 20 15.25 19.9 15.4 19.85
L 22.8 13.7
Q 22.85 13.7 22.9 13.6 22.95 13.45 23 13.25 23 13.1 23 12.95 23 12.75 23 12.5 Z"/>
</g>

<g id="icon_sourcecode_0_Layer0_0_FILL">
<path fill-opacity="0" stroke="none" d="
M 0 17.15
L 25 17.15 25 0 0 0 0 17.15
M 25 17.15
L 0 17.15 0 25 25 25 25 17.15 Z"/>
</g>

<g id="iconUser_0_Layer0_0_FILL">
<path stroke="none" d="
M 64 32
Q 64 18.75 54.6 9.35 45.25 0 32 0 18.75 0 9.35 9.35 0 18.75 0 32 0 45.25 9.35 54.6 18.75 64 32 64 45.25 64 54.6 54.6 64 45.25 64 32
M 40.8 36.8
Q 44.4994140625 33.162890625 44.5 28 44.496875 22.8361328125 40.8 19.15 37.1669921875 15.50625 32 15.5 26.837109375 15.4962890625 23.15 19.1
L 23.1 19.15
Q 19.4962890625 22.837109375 19.5 28 19.50625 33.1669921875 23.15 36.8 24.4369140625 38.090625 25.9 38.9 22.430078125 40.0525390625 19.55 42.5
L 19.55 42.5
Q 14.3353515625 47.18828125 14.35 53.8 14.349609375 54.34296875 14.3 55 12.8708984375 53.8708984375 11.5 52.5 3 44 3 32 3 20 11.5 11.5 20 3 32 3 44 3 52.5 11.5 61 20 61 32 61 44 52.5 52.5 51.1515625 53.8484375 49.7 54.95 49.700390625 54.31015625 49.7 53.8 49.7189453125 47.1875 44.45 42.5 41.6505859375 40.0173828125 38.15 38.9 39.5626953125 38.075 40.8 36.8
L 40.8 36.8
M 25.25 21.25
L 25.25 21.25
Q 28.0802734375 18.503515625 32 18.5 35.9326171875 18.493359375 38.7 21.25 41.5029296875 24.063671875 41.5 28 41.5005859375 31.9193359375 38.7 34.65
L 38.65 34.7
Q 35.9193359375 37.5005859375 32 37.5 28.063671875 37.5029296875 25.25 34.7 22.493359375 31.9326171875 22.5 28 22.503515625 24.0802734375 25.25 21.25
M 21.55 44.75
L 21.5 44.75
Q 25.9169921875 40.9853515625 32.05 41 38.2046875 41.0029296875 42.45 44.75 46.680859375 48.5123046875 46.7 53.8 46.69921875 54.719140625 46.75 56.15 46.749609375 56.5482421875 46.75 57 46.6140625 57.128515625 46.45 57.2 39.998046875 61 32 61 24.0138671875 61 17.55 57.2 17.4234375 57.13671875 17.25 57.05 17.300390625 56.583984375 17.3 56.15
L 17.3 56.1
Q 17.3505859375 54.7525390625 17.35 53.8 17.364453125 48.5115234375 21.55 44.75 Z"/>
</g>

<g id="iconWorld_0_Layer0_0_FILL">
<path fill-opacity="0.9686274509803922" stroke="none" d="
M 64 32
Q 64 18.75 54.6 9.35 45.25 0 32 0 18.75 0 9.35 9.35 0 18.75 0 32 0 45.25 9.35 54.6 18.75 64 32 64 45.25 64 54.6 54.6 64 45.25 64 32
M 52.5 11.5
Q 61 20 61 32 61 44 52.5 52.5 50.4724609375 54.5275390625 48.25 56.05 47.365625 56.68671875 46.45 57.2 43.0501953125 59.2142578125 39.2 60.15 38.3833984375 60.7546875 37.55 61.35 36.95 61.8 36.3 62.3 33.05 64.7 30.55 62.8 28.95 61.6 26.85 61.15 24.9716796875 60.723828125 23.75 59.85 20.50546875 58.9431640625 17.55 57.2 16.6716796875 56.6990234375 15.8 56.1 13.5486328125 54.5486328125 11.5 52.5 3 44 3 32 3 20 11.5 11.5 20 3 32 3 44 3 52.5 11.5 Z"/>

<path stroke="none" d="
M 45.9 16.15
Q 45.3 16.5 44.7 16.6 42.25 17 39.3 17 38.2 17 37.1 17.45 33.25 18.95 29.35 17.8 29.2 17.2 28.7 17 26 16.15 23.8 18.55 23.15 16.95 21.75 15.95 21.5 15.75 21.4 15.55 20.75 13.5 18.6 13.1 15.8 14.1 13.5 15.85 9 14.2 7.35 17.95 6.6 19.8 5.3 21.35 4.6 22.15 5.1 23.15 6.8 26.45 10.9 25.85 10.9 25.95 10.95 26 11.5 27.4 13.1 27.65 12.75 29.8 12.9 32 13 34.15 13.7 36.2 15.6 41.5 17.25 47.1 17.5 47.95 18.25 48.15 21.15 49.05 20.15 46.05 20.5 46.5 20.95 46.75 23.15 47.95 23.95 50.05 23.65 50.2 23.5 50.5 22.75 51.55 22.1 52.65 21.7 53.4 21.6 54.25 21.1208984375 58.048046875 23.75 59.85 24.9716796875 60.723828125 26.85 61.15 28.95 61.6 30.55 62.8 33.05 64.7 36.3 62.3 36.95 61.8 37.55 61.35 38.3833984375 60.7546875 39.2 60.15 41.1982421875 58.73984375 43.2 57.3 44.35 56.5 43.95 55.15 43.55 53.9 43.55 52.7 43.6 48.9 39.95 48.45 34.35 47.75 29.25 49.8 29 48.8 29 47.75 29 46.05 29 44.35 32.9 42.5 36.15 39.95 37.7 38.7 39.4 39.8 42.05 41.55 45.05 42.2 46.8 42.55 46.75 40.9 46.6 37.4 44.5 34.5 43.5 33.1 43.85 31.65 44.7 28.05 46.25 24.7 47.9 21.15 48.15 17.35 48.35 14.7 45.9 16.15
M 41.55 28.75
Q 39.65 33.8 43.35 38.15 37.25 34.15 31.7 39.15 31.15 39.6 30.6 39.8 25.1 41.45 26 46.9 25.70234375 46.5494140625 24.45 46 23.19296875 45.5017578125 21.25 42.9 19.309375 40.34765625 18.2 40.35 16.45 36.2 15.9 31.85 15.8 30.9 16.1 29.95 17.55 25.9 13.85 24.65 13.65 23.9 13 23.45 10.9 21.95 7.95 22.45 8.45 21.9 8.85 21.25 9.55 20 10.15 18.65 11.45 18.45 12.55 18.95 13.1 19.25 13.6 19.05 15.85 18.25 18.05 16.65 19 17.9 20.2 19.05 21 19.85 21.9 20.6 24.45 22.75 27.05 20.05 31.1 22.5 35.95 20.9 40.25 19.5 44.45 20.35 42.9 23.7 42 27.3 41.8 28.05 41.55 28.75
M 35.5 51.05
Q 37.45 51.05 39.45 51 40.05 51 40.05 51.5 40 53.5 40.85 55.25 39.6 55.75 38.65 56.6 36.1 59 32.75 60.4 29.2 58.65 25.4 57.2 24.85 57 24.8 56.55 24.471875 53.8779296875 27.55 52.2
L 35.5 51.05 Z"/>
</g>
</defs><symbol id="icon-check" viewBox="0 0 64 64">


<g transform="matrix( 1, 0, 0, 1, 0,0) ">
<g transform="matrix( 1, 0, 0, 1, 0,0) ">
<use xlink:href="#iconCheck_Fill"/>
</g>
</g>
</symbol><symbol id="icon-close" viewBox="0 0 32 32">


<g transform="matrix( 1, 0, 0, 1, 0,0) ">
<g transform="matrix( 1, 0, 0, 1, 0,0) ">
<use xlink:href="#icon_0_Layer1_0_FILL"/>
</g>

<g transform="matrix( 1, 0, 0, 1, 0,0) ">
<use xlink:href="#icon_0_Layer0_0_FILL"/>
</g>
</g>
</symbol><symbol id="icon-edit" viewBox="0 0 64 64">


<g transform="matrix( 1, 0, 0, 1, 0,0) ">
<g transform="matrix( 1, 0, 0, 1, 0,0) ">
<use xlink:href="#iconEdit_0_Layer1_0_FILL"/>
</g>

<g transform="matrix( 1, 0, 0, 1, 0,0) ">
<use xlink:href="#iconEdit_0_Layer0_0_FILL"/>
</g>
</g>
</symbol><symbol id="icon-envelope" viewBox="0 0 64 64">


<g transform="matrix( 1, 0, 0, 1, 0,9) ">
<g transform="matrix( 1, 0, 0, 1, 0,0) ">
<use xlink:href="#iconEnvelope_0_Layer0_0_FILL"/>
</g>
</g>
</symbol><symbol id="icon-hide" viewBox="0 0 64 64">


<g transform="matrix( 1, 0, 0, 1, 0,0) ">
<g transform="matrix( 1, 0, 0, 1, 0,0) ">
<use xlink:href="#iconHide_0_Layer1_0_FILL"/>
</g>

<g transform="matrix( 1, 0, 0, 1, 0,0) ">
<use xlink:href="#iconHide_0_Layer0_0_FILL"/>
</g>
</g>
</symbol><symbol id="icon-link" viewBox="0 0 512 512">
<path d="M459.654,233.373l-90.531,90.5c-49.969,50-131.031,50-181,0c-7.875-7.844-14.031-16.688-19.438-25.813
	l42.063-42.063c2-2.016,4.469-3.172,6.828-4.531c2.906,9.938,7.984,19.344,15.797,27.156c24.953,24.969,65.563,24.938,90.5,0
	l90.5-90.5c24.969-24.969,24.969-65.563,0-90.516c-24.938-24.953-65.531-24.953-90.5,0l-32.188,32.219
	c-26.109-10.172-54.25-12.906-81.641-8.891l68.578-68.578c50-49.984,131.031-49.984,181.031,0
	C509.623,102.342,509.623,183.389,459.654,233.373z M220.326,382.186l-32.203,32.219c-24.953,24.938-65.563,24.938-90.516,0
	c-24.953-24.969-24.953-65.563,0-90.531l90.516-90.5c24.969-24.969,65.547-24.969,90.5,0c7.797,7.797,12.875,17.203,15.813,27.125
	c2.375-1.375,4.813-2.5,6.813-4.5l42.063-42.047c-5.375-9.156-11.563-17.969-19.438-25.828c-49.969-49.984-131.031-49.984-181.016,0
	l-90.5,90.5c-49.984,50-49.984,131.031,0,181.031c49.984,49.969,131.031,49.969,181.016,0l68.594-68.594
	C274.561,395.092,246.42,392.342,220.326,382.186z"/>
</symbol><symbol id="icon-loader" viewBox="0 0 100 100"><g transform="rotate(0 50 50)">
  <rect x="47.5" y="22.5" rx="4.75" ry="2.25" width="5" height="15" fill="#cecece">
    <animate attributeName="opacity" values="1;0" times="0;1" dur="1s" begin="-0.9s" repeatCount="indefinite"/>
  </rect>
</g><g transform="rotate(36 50 50)">
  <rect x="47.5" y="22.5" rx="4.75" ry="2.25" width="5" height="15" fill="#cecece">
    <animate attributeName="opacity" values="1;0" times="0;1" dur="1s" begin="-0.8s" repeatCount="indefinite"/>
  </rect>
</g><g transform="rotate(72 50 50)">
  <rect x="47.5" y="22.5" rx="4.75" ry="2.25" width="5" height="15" fill="#cecece">
    <animate attributeName="opacity" values="1;0" times="0;1" dur="1s" begin="-0.7s" repeatCount="indefinite"/>
  </rect>
</g><g transform="rotate(108 50 50)">
  <rect x="47.5" y="22.5" rx="4.75" ry="2.25" width="5" height="15" fill="#cecece">
    <animate attributeName="opacity" values="1;0" times="0;1" dur="1s" begin="-0.6s" repeatCount="indefinite"/>
  </rect>
</g><g transform="rotate(144 50 50)">
  <rect x="47.5" y="22.5" rx="4.75" ry="2.25" width="5" height="15" fill="#cecece">
    <animate attributeName="opacity" values="1;0" times="0;1" dur="1s" begin="-0.5s" repeatCount="indefinite"/>
  </rect>
</g><g transform="rotate(180 50 50)">
  <rect x="47.5" y="22.5" rx="4.75" ry="2.25" width="5" height="15" fill="#cecece">
    <animate attributeName="opacity" values="1;0" times="0;1" dur="1s" begin="-0.4s" repeatCount="indefinite"/>
  </rect>
</g><g transform="rotate(216 50 50)">
  <rect x="47.5" y="22.5" rx="4.75" ry="2.25" width="5" height="15" fill="#cecece">
    <animate attributeName="opacity" values="1;0" times="0;1" dur="1s" begin="-0.3s" repeatCount="indefinite"/>
  </rect>
</g><g transform="rotate(252 50 50)">
  <rect x="47.5" y="22.5" rx="4.75" ry="2.25" width="5" height="15" fill="#cecece">
    <animate attributeName="opacity" values="1;0" times="0;1" dur="1s" begin="-0.2s" repeatCount="indefinite"/>
  </rect>
</g><g transform="rotate(288 50 50)">
  <rect x="47.5" y="22.5" rx="4.75" ry="2.25" width="5" height="15" fill="#cecece">
    <animate attributeName="opacity" values="1;0" times="0;1" dur="1s" begin="-0.1s" repeatCount="indefinite"/>
  </rect>
</g><g transform="rotate(324 50 50)">
  <rect x="47.5" y="22.5" rx="4.75" ry="2.25" width="5" height="15" fill="#cecece">
    <animate attributeName="opacity" values="1;0" times="0;1" dur="1s" begin="0s" repeatCount="indefinite"/>
  </rect>
</g></symbol><symbol id="icon-menu" viewBox="0 0 64 64">


<g transform="matrix( 1, 0, 0, 1, 0,0) ">
<g transform="matrix( 1, 0, 0, 1, 0,0) ">
<use xlink:href="#menu_0_Layer1_0_FILL"/>
</g>

<g transform="matrix( 1, 0, 0, 1, 0,0) ">
<use xlink:href="#menu_0_Layer0_0_FILL"/>
</g>
</g>
</symbol><symbol id="icon-poster" viewBox="0 0 64 64">


<g transform="matrix( 1, 0, 0, 1, 1.45,14.05) ">
<g transform="matrix( 1, 0, 0, 1, 0,0) ">
<use xlink:href="#iconPoster_0_Layer0_0_FILL"/>

<use xlink:href="#iconPoster_0_Layer0_0_1_STROKES"/>
</g>
</g>
</symbol><symbol id="icon-search" viewBox="0 0 25 25">


<g transform="matrix( 1, 0, 0, 1, 0,0) ">
<g transform="matrix( 1, 0, 0, 1, 0,0) ">
<use xlink:href="#icon_search_0_Layer1_0_FILL"/>
</g>

<g transform="matrix( 1, 0, 0, 1, 0,0) ">
<use xlink:href="#icon_search_0_Layer0_0_FILL"/>
</g>
</g>
</symbol><symbol id="icon-settings" viewBox="0 0 36 36">


<g transform="matrix( 1, 0, 0, 1, 0.3,0.3) ">
<g transform="matrix( 1, 0, 0, 1, 0,0) ">
<use xlink:href="#icon_settings_0_Layer1_0_FILL"/>
</g>

<g transform="matrix( 1, 0, 0, 1, 0,0) ">
<use xlink:href="#icon_settings_0_Layer0_0_FILL"/>
</g>
</g>
</symbol><symbol id="icon-sourcecode" viewBox="0 0 25 25">


<g transform="matrix( 1, 0, 0, 1, 0,0) ">
<g transform="matrix( 1, 0, 0, 1, 0,0) ">
<use xlink:href="#icon_sourcecode_0_Layer1_0_FILL"/>
</g>

<g transform="matrix( 1, 0, 0, 1, 0,0) ">
<use xlink:href="#icon_sourcecode_0_Layer0_0_FILL"/>
</g>
</g>
</symbol><symbol id="icon-user" viewBox="0 0 64 64">


<g transform="matrix( 1, 0, 0, 1, 0,0) ">
<g transform="matrix( 1, 0, 0, 1, 0,0) ">
<use xlink:href="#iconUser_0_Layer0_0_FILL"/>
</g>
</g>
</symbol><symbol id="icon-world" viewBox="0 0 64 64">


<g transform="matrix( 1, 0, 0, 1, 0,0) ">
<g transform="matrix( 1, 0, 0, 1, 0,0) ">
<use xlink:href="#iconWorld_0_Layer0_0_FILL"/>
</g>
</g>
</symbol></svg>